<?xml version="1.0" encoding="UTF-8" standalone="no"?>
<!-- Created with Inkscape (http://www.inkscape.org/) -->

<svg
   width="627.13983"
   height="804.28125"
   viewBox="0 0 627.13983 804.28125"
   version="1.1"
   id="svg1"
   xml:space="preserve"
   inkscape:version="1.4.2 (ebf0e940d0, 2025-05-08)"
   sodipodi:docname="pace.svg"
   xmlns:inkscape="http://www.inkscape.org/namespaces/inkscape"
   xmlns:sodipodi="http://sodipodi.sourceforge.net/DTD/sodipodi-0.dtd"
   xmlns="http://www.w3.org/2000/svg"
   xmlns:svg="http://www.w3.org/2000/svg"><sodipodi:namedview
     id="namedview1"
     pagecolor="#505050"
     bordercolor="#eeeeee"
     borderopacity="1"
     inkscape:showpageshadow="0"
     inkscape:pageopacity="0"
     inkscape:pagecheckerboard="0"
     inkscape:deskcolor="#505050"
     inkscape:document-units="px"
     inkscape:zoom="0.36239223"
     inkscape:cx="567.06515"
     inkscape:cy="423.57421"
     inkscape:window-width="1280"
     inkscape:window-height="720"
     inkscape:window-x="0"
     inkscape:window-y="0"
     inkscape:window-maximized="1"
     inkscape:current-layer="layer1"><inkscape:page
       x="0"
       y="0"
       width="627.13983"
       height="804.28125"
       id="page2"
       margin="0"
       bleed="0" /></sodipodi:namedview><defs
     id="defs1" /><g
     inkscape:label="Pace"
     inkscape:groupmode="layer"
     id="layer1"
     inkscape:export-filename="pace-exported.svg"
     inkscape:export-xdpi="96"
     inkscape:export-ydpi="96"
     transform="translate(-187.4949,-97.539062)"><path
       id="path2"
       style="opacity:1;fill:#eff1f5;fill-opacity:1;stroke-width:3.77953;stroke-linecap:round;stroke-linejoin:round;paint-order:stroke markers fill"
       d="m 559.02344,442.92773 c 0,0 -48.77892,40.97452 -104.38867,44.87696 -55.60976,3.90244 -113.17188,-15.60938 -113.17188,-15.60938 0,0 -38.04879,41.9516 -40,64.39063 -1.95122,22.43902 8.14152,59.72047 5.85352,72.19531 -2.46354,13.43196 -15.66797,29.38672 -15.66797,29.38672 -39.02439,48.78049 -87.14423,110.28181 -97.50205,128.17259 -8.04878,13.90245 -10.00091,26.83003 0.9747,39.51296 10.98373,12.69231 72.19693,48.78115 85.85547,52.68359 13.65854,3.90244 32.19403,5.85361 44.87696,1.95117 12.68293,-3.90244 175.60904,-58.53611 189.26757,-59.51172 13.65854,-0.97561 39.02449,2.92526 36.09766,24.38867 -2.92683,21.46342 -33.17002,45.85514 -29.26758,59.51368 3.90244,13.65854 4.92969,16.9414 4.92969,16.9414 0,0 55.55778,-52.06364 128.72852,-85.23437 73.17073,-33.17073 159.02539,-52.6836 159.02539,-52.6836 0,0 -61.46485,-109.26743 -61.46485,-115.12109 0,-5.85366 52.6836,-73.17187 52.6836,-73.17187 0,0 -89.75654,-61.46228 -142.43946,-86.82813 C 610.73113,463.41539 559.02344,442.92773 559.02344,442.92773 Z M 488.78125,520 c 0,0 -11.70732,71.21917 -40,93.6582 -28.29268,22.43902 -90.73242,41.95118 -90.73242,41.95118 15.60976,-40 24.39014,-67.31594 43.90234,-86.82813 C 421.46337,549.26905 488.78125,520 488.78125,520 Z"
       sodipodi:nodetypes="cscsscssssssscscscsccscsc" /><path
       style="opacity:1;fill:#eff1f5;fill-opacity:1;stroke-width:3.77953;stroke-linecap:round;stroke-linejoin:round;paint-order:stroke markers fill"
       d="m 360.10706,422.88435 c 3.40126,9.7337 42.71367,32.61441 96.90086,23.05114 63.52928,-11.21202 98.3296,-37.53821 98.3296,-47.88611 0,-10.34791 -34.89945,-61.41408 -107.1304,-53.55802 -53.35344,5.8029 -95.04157,58.52785 -88.10006,78.39299 z"
       id="path3"
       sodipodi:nodetypes="sssss" /><path
       style="opacity:1;fill:#eff1f5;fill-opacity:1;stroke-width:3.77953;stroke-linecap:round;stroke-linejoin:round;paint-order:stroke markers fill"
       d="M 341.46342,381.46342 C 370.73171,334.63415 415.60976,316.09756 440,314.14634 407.80488,276.09756 342.61149,172.50031 338.9948,162.00532 c -4.86233,-14.10965 -18.01919,-13.71264 -19.97041,0.92151 -1.95122,14.63415 -11.70732,70.2439 -5.85366,111.21951 5.85366,40.97561 28.29269,107.31708 28.29269,107.31708 z"
       id="path4"
       sodipodi:nodetypes="ccsssc" /><path
       id="path5"
       style="opacity:1;fill:#eff1f5;fill-opacity:1;stroke-width:3.77953;stroke-linecap:round;stroke-linejoin:round;paint-order:stroke markers fill"
       d="m 536.20703,97.539062 c -8.2447,0.0021 -33.91978,30.386868 -43.52344,99.533208 -9.7561,70.2439 0.97461,120 0.97461,120 50.7317,8.78049 80.97637,47.80602 88.78125,73.17187 42.92682,16.58537 153.16993,76.09766 153.16993,76.09766 0,0 -2.92631,-57.56079 -21.4629,-87.80469 -1.95122,-48.78049 -44.87748,-112.19579 -63.41406,-132.68359 -18.53659,-20.48781 -55.61,-52.68213 -70.24414,-73.16993 -14.63415,-20.48781 -36.09747,-74.147433 -43.90234,-75.123043 -0.12195,-0.01524 -0.24804,-0.02152 -0.37891,-0.02148 z m 9.63672,38.968748 c 6.62874,-0.23772 12.503,33.65921 24.88867,50.8086 12.68293,17.56098 59.51195,46.83069 89.75586,101.46484 30.2439,54.63414 48.78087,89.75615 24.39063,118.04883 0.97561,-11.70732 0.73099,-18.04978 -0.73243,-19.02539 -1.46341,-0.97561 -31.95122,0.97627 -40,12.68359 27.56098,-52.19513 5.32392,-69.23396 4.59221,-72.8925 -0.73171,-3.65853 -0.30332,-11.43914 -1.27893,-12.65865 -0.97561,-1.21951 -18.19071,6.03905 -28.67851,11.64881 -9.17013,4.90496 -20.73242,10.97461 -20.73242,10.97461 7.80488,-53.65854 -34.1462,-60.48695 -45.85352,-115.1211 -11.70731,-54.63414 -13.65934,-83.90229 -6.83008,-85.85351 0.16007,-0.0457 0.31943,-0.0724 0.47852,-0.0781 z"
       sodipodi:nodetypes="csccccsssscsscscssscsscss" /></g></svg>
